<mxfile host="app.diagrams.net" modified="2024-03-14T10:30:05.816Z" agent="Mozilla/5.0 (X11; Linux x86_64; rv:102.0) Gecko/20100101 Firefox/102.0" etag="5Fpvg3orpVMVHPCaz4Oc" version="24.0.6" type="device">
  <diagram name="Страница — 1" id="eX2CaTc6pWqlB0p6pWSM">
    <mxGraphModel dx="1434" dy="721" grid="1" gridSize="10" guides="1" tooltips="1" connect="1" arrows="1" fold="1" page="1" pageScale="1" pageWidth="827" pageHeight="1169" math="0" shadow="0">
      <root>
        <mxCell id="0" />
        <mxCell id="1" parent="0" />
        <mxCell id="KGWeYNtt0aZQLH6pzkXO-1" value="user" style="swimlane;fontStyle=0;childLayout=stackLayout;horizontal=1;startSize=30;horizontalStack=0;resizeParent=1;resizeParentMax=0;resizeLast=0;collapsible=1;marginBottom=0;whiteSpace=wrap;html=1;" vertex="1" parent="1">
          <mxGeometry x="240" y="130" width="140" height="270" as="geometry" />
        </mxCell>
        <mxCell id="KGWeYNtt0aZQLH6pzkXO-2" value="id" style="text;strokeColor=none;fillColor=none;align=left;verticalAlign=middle;spacingLeft=4;spacingRight=4;overflow=hidden;points=[[0,0.5],[1,0.5]];portConstraint=eastwest;rotatable=0;whiteSpace=wrap;html=1;" vertex="1" parent="KGWeYNtt0aZQLH6pzkXO-1">
          <mxGeometry y="30" width="140" height="30" as="geometry" />
        </mxCell>
        <mxCell id="KGWeYNtt0aZQLH6pzkXO-3" value="name" style="text;strokeColor=none;fillColor=none;align=left;verticalAlign=middle;spacingLeft=4;spacingRight=4;overflow=hidden;points=[[0,0.5],[1,0.5]];portConstraint=eastwest;rotatable=0;whiteSpace=wrap;html=1;" vertex="1" parent="KGWeYNtt0aZQLH6pzkXO-1">
          <mxGeometry y="60" width="140" height="30" as="geometry" />
        </mxCell>
        <mxCell id="KGWeYNtt0aZQLH6pzkXO-4" value="last name" style="text;strokeColor=none;fillColor=none;align=left;verticalAlign=middle;spacingLeft=4;spacingRight=4;overflow=hidden;points=[[0,0.5],[1,0.5]];portConstraint=eastwest;rotatable=0;whiteSpace=wrap;html=1;" vertex="1" parent="KGWeYNtt0aZQLH6pzkXO-1">
          <mxGeometry y="90" width="140" height="30" as="geometry" />
        </mxCell>
        <mxCell id="KGWeYNtt0aZQLH6pzkXO-5" value="username" style="text;strokeColor=none;fillColor=none;align=left;verticalAlign=middle;spacingLeft=4;spacingRight=4;overflow=hidden;points=[[0,0.5],[1,0.5]];portConstraint=eastwest;rotatable=0;whiteSpace=wrap;html=1;" vertex="1" parent="KGWeYNtt0aZQLH6pzkXO-1">
          <mxGeometry y="120" width="140" height="30" as="geometry" />
        </mxCell>
        <mxCell id="KGWeYNtt0aZQLH6pzkXO-6" value="password" style="text;strokeColor=none;fillColor=none;align=left;verticalAlign=middle;spacingLeft=4;spacingRight=4;overflow=hidden;points=[[0,0.5],[1,0.5]];portConstraint=eastwest;rotatable=0;whiteSpace=wrap;html=1;" vertex="1" parent="KGWeYNtt0aZQLH6pzkXO-1">
          <mxGeometry y="150" width="140" height="30" as="geometry" />
        </mxCell>
        <mxCell id="KGWeYNtt0aZQLH6pzkXO-7" value="slug" style="text;strokeColor=none;fillColor=none;align=left;verticalAlign=middle;spacingLeft=4;spacingRight=4;overflow=hidden;points=[[0,0.5],[1,0.5]];portConstraint=eastwest;rotatable=0;whiteSpace=wrap;html=1;" vertex="1" parent="KGWeYNtt0aZQLH6pzkXO-1">
          <mxGeometry y="180" width="140" height="30" as="geometry" />
        </mxCell>
        <mxCell id="KGWeYNtt0aZQLH6pzkXO-8" value="phone" style="text;strokeColor=none;fillColor=none;align=left;verticalAlign=middle;spacingLeft=4;spacingRight=4;overflow=hidden;points=[[0,0.5],[1,0.5]];portConstraint=eastwest;rotatable=0;whiteSpace=wrap;html=1;" vertex="1" parent="KGWeYNtt0aZQLH6pzkXO-1">
          <mxGeometry y="210" width="140" height="30" as="geometry" />
        </mxCell>
        <mxCell id="KGWeYNtt0aZQLH6pzkXO-9" value="photo" style="text;strokeColor=none;fillColor=none;align=left;verticalAlign=middle;spacingLeft=4;spacingRight=4;overflow=hidden;points=[[0,0.5],[1,0.5]];portConstraint=eastwest;rotatable=0;whiteSpace=wrap;html=1;" vertex="1" parent="KGWeYNtt0aZQLH6pzkXO-1">
          <mxGeometry y="240" width="140" height="30" as="geometry" />
        </mxCell>
        <mxCell id="KGWeYNtt0aZQLH6pzkXO-10" value="events" style="swimlane;fontStyle=0;childLayout=stackLayout;horizontal=1;startSize=30;horizontalStack=0;resizeParent=1;resizeParentMax=0;resizeLast=0;collapsible=1;marginBottom=0;whiteSpace=wrap;html=1;" vertex="1" parent="1">
          <mxGeometry x="1010" y="270" width="140" height="210" as="geometry" />
        </mxCell>
        <mxCell id="KGWeYNtt0aZQLH6pzkXO-11" value="id " style="text;strokeColor=none;fillColor=none;align=left;verticalAlign=middle;spacingLeft=4;spacingRight=4;overflow=hidden;points=[[0,0.5],[1,0.5]];portConstraint=eastwest;rotatable=0;whiteSpace=wrap;html=1;" vertex="1" parent="KGWeYNtt0aZQLH6pzkXO-10">
          <mxGeometry y="30" width="140" height="30" as="geometry" />
        </mxCell>
        <mxCell id="KGWeYNtt0aZQLH6pzkXO-12" value="event name " style="text;strokeColor=none;fillColor=none;align=left;verticalAlign=middle;spacingLeft=4;spacingRight=4;overflow=hidden;points=[[0,0.5],[1,0.5]];portConstraint=eastwest;rotatable=0;whiteSpace=wrap;html=1;" vertex="1" parent="KGWeYNtt0aZQLH6pzkXO-10">
          <mxGeometry y="60" width="140" height="30" as="geometry" />
        </mxCell>
        <mxCell id="KGWeYNtt0aZQLH6pzkXO-13" value="date" style="text;strokeColor=none;fillColor=none;align=left;verticalAlign=middle;spacingLeft=4;spacingRight=4;overflow=hidden;points=[[0,0.5],[1,0.5]];portConstraint=eastwest;rotatable=0;whiteSpace=wrap;html=1;" vertex="1" parent="KGWeYNtt0aZQLH6pzkXO-10">
          <mxGeometry y="90" width="140" height="30" as="geometry" />
        </mxCell>
        <mxCell id="KGWeYNtt0aZQLH6pzkXO-14" value="url" style="text;strokeColor=none;fillColor=none;align=left;verticalAlign=middle;spacingLeft=4;spacingRight=4;overflow=hidden;points=[[0,0.5],[1,0.5]];portConstraint=eastwest;rotatable=0;whiteSpace=wrap;html=1;" vertex="1" parent="KGWeYNtt0aZQLH6pzkXO-10">
          <mxGeometry y="120" width="140" height="30" as="geometry" />
        </mxCell>
        <mxCell id="KGWeYNtt0aZQLH6pzkXO-15" value="imgs " style="text;strokeColor=none;fillColor=none;align=left;verticalAlign=middle;spacingLeft=4;spacingRight=4;overflow=hidden;points=[[0,0.5],[1,0.5]];portConstraint=eastwest;rotatable=0;whiteSpace=wrap;html=1;" vertex="1" parent="KGWeYNtt0aZQLH6pzkXO-10">
          <mxGeometry y="150" width="140" height="30" as="geometry" />
        </mxCell>
        <mxCell id="KGWeYNtt0aZQLH6pzkXO-25" value="text" style="text;strokeColor=none;fillColor=none;align=left;verticalAlign=middle;spacingLeft=4;spacingRight=4;overflow=hidden;points=[[0,0.5],[1,0.5]];portConstraint=eastwest;rotatable=0;whiteSpace=wrap;html=1;" vertex="1" parent="KGWeYNtt0aZQLH6pzkXO-10">
          <mxGeometry y="180" width="140" height="30" as="geometry" />
        </mxCell>
        <mxCell id="KGWeYNtt0aZQLH6pzkXO-16" value="img " style="swimlane;fontStyle=0;childLayout=stackLayout;horizontal=1;startSize=30;horizontalStack=0;resizeParent=1;resizeParentMax=0;resizeLast=0;collapsible=1;marginBottom=0;whiteSpace=wrap;html=1;" vertex="1" parent="1">
          <mxGeometry x="740" y="160" width="140" height="120" as="geometry" />
        </mxCell>
        <mxCell id="KGWeYNtt0aZQLH6pzkXO-17" value="id" style="text;strokeColor=none;fillColor=none;align=left;verticalAlign=middle;spacingLeft=4;spacingRight=4;overflow=hidden;points=[[0,0.5],[1,0.5]];portConstraint=eastwest;rotatable=0;whiteSpace=wrap;html=1;" vertex="1" parent="KGWeYNtt0aZQLH6pzkXO-16">
          <mxGeometry y="30" width="140" height="30" as="geometry" />
        </mxCell>
        <mxCell id="KGWeYNtt0aZQLH6pzkXO-18" value="img" style="text;strokeColor=none;fillColor=none;align=left;verticalAlign=middle;spacingLeft=4;spacingRight=4;overflow=hidden;points=[[0,0.5],[1,0.5]];portConstraint=eastwest;rotatable=0;whiteSpace=wrap;html=1;" vertex="1" parent="KGWeYNtt0aZQLH6pzkXO-16">
          <mxGeometry y="60" width="140" height="30" as="geometry" />
        </mxCell>
        <mxCell id="KGWeYNtt0aZQLH6pzkXO-19" value="img name" style="text;strokeColor=none;fillColor=none;align=left;verticalAlign=middle;spacingLeft=4;spacingRight=4;overflow=hidden;points=[[0,0.5],[1,0.5]];portConstraint=eastwest;rotatable=0;whiteSpace=wrap;html=1;" vertex="1" parent="KGWeYNtt0aZQLH6pzkXO-16">
          <mxGeometry y="90" width="140" height="30" as="geometry" />
        </mxCell>
        <mxCell id="KGWeYNtt0aZQLH6pzkXO-20" value="comments " style="swimlane;fontStyle=0;childLayout=stackLayout;horizontal=1;startSize=30;horizontalStack=0;resizeParent=1;resizeParentMax=0;resizeLast=0;collapsible=1;marginBottom=0;whiteSpace=wrap;html=1;" vertex="1" parent="1">
          <mxGeometry x="560" y="180" width="140" height="210" as="geometry" />
        </mxCell>
        <mxCell id="KGWeYNtt0aZQLH6pzkXO-21" value="id " style="text;strokeColor=none;fillColor=none;align=left;verticalAlign=middle;spacingLeft=4;spacingRight=4;overflow=hidden;points=[[0,0.5],[1,0.5]];portConstraint=eastwest;rotatable=0;whiteSpace=wrap;html=1;" vertex="1" parent="KGWeYNtt0aZQLH6pzkXO-20">
          <mxGeometry y="30" width="140" height="30" as="geometry" />
        </mxCell>
        <mxCell id="KGWeYNtt0aZQLH6pzkXO-22" value="title " style="text;strokeColor=none;fillColor=none;align=left;verticalAlign=middle;spacingLeft=4;spacingRight=4;overflow=hidden;points=[[0,0.5],[1,0.5]];portConstraint=eastwest;rotatable=0;whiteSpace=wrap;html=1;" vertex="1" parent="KGWeYNtt0aZQLH6pzkXO-20">
          <mxGeometry y="60" width="140" height="30" as="geometry" />
        </mxCell>
        <mxCell id="KGWeYNtt0aZQLH6pzkXO-23" value="rating" style="text;strokeColor=none;fillColor=none;align=left;verticalAlign=middle;spacingLeft=4;spacingRight=4;overflow=hidden;points=[[0,0.5],[1,0.5]];portConstraint=eastwest;rotatable=0;whiteSpace=wrap;html=1;" vertex="1" parent="KGWeYNtt0aZQLH6pzkXO-20">
          <mxGeometry y="90" width="140" height="30" as="geometry" />
        </mxCell>
        <mxCell id="KGWeYNtt0aZQLH6pzkXO-24" value="text" style="text;strokeColor=none;fillColor=none;align=left;verticalAlign=middle;spacingLeft=4;spacingRight=4;overflow=hidden;points=[[0,0.5],[1,0.5]];portConstraint=eastwest;rotatable=0;whiteSpace=wrap;html=1;" vertex="1" parent="KGWeYNtt0aZQLH6pzkXO-20">
          <mxGeometry y="120" width="140" height="30" as="geometry" />
        </mxCell>
        <mxCell id="KGWeYNtt0aZQLH6pzkXO-59" value="date" style="text;strokeColor=none;fillColor=none;align=left;verticalAlign=middle;spacingLeft=4;spacingRight=4;overflow=hidden;points=[[0,0.5],[1,0.5]];portConstraint=eastwest;rotatable=0;whiteSpace=wrap;html=1;" vertex="1" parent="KGWeYNtt0aZQLH6pzkXO-20">
          <mxGeometry y="150" width="140" height="30" as="geometry" />
        </mxCell>
        <mxCell id="KGWeYNtt0aZQLH6pzkXO-61" value="user" style="text;strokeColor=none;fillColor=none;align=left;verticalAlign=middle;spacingLeft=4;spacingRight=4;overflow=hidden;points=[[0,0.5],[1,0.5]];portConstraint=eastwest;rotatable=0;whiteSpace=wrap;html=1;" vertex="1" parent="KGWeYNtt0aZQLH6pzkXO-20">
          <mxGeometry y="180" width="140" height="30" as="geometry" />
        </mxCell>
        <mxCell id="KGWeYNtt0aZQLH6pzkXO-26" value="excpeditions " style="swimlane;fontStyle=0;childLayout=stackLayout;horizontal=1;startSize=30;horizontalStack=0;resizeParent=1;resizeParentMax=0;resizeLast=0;collapsible=1;marginBottom=0;whiteSpace=wrap;html=1;direction=east;" vertex="1" parent="1">
          <mxGeometry x="414" y="480" width="140" height="300" as="geometry" />
        </mxCell>
        <mxCell id="KGWeYNtt0aZQLH6pzkXO-27" value="id " style="text;strokeColor=none;fillColor=none;align=left;verticalAlign=middle;spacingLeft=4;spacingRight=4;overflow=hidden;points=[[0,0.5],[1,0.5]];portConstraint=eastwest;rotatable=0;whiteSpace=wrap;html=1;" vertex="1" parent="KGWeYNtt0aZQLH6pzkXO-26">
          <mxGeometry y="30" width="140" height="30" as="geometry" />
        </mxCell>
        <mxCell id="KGWeYNtt0aZQLH6pzkXO-28" value="name" style="text;strokeColor=none;fillColor=none;align=left;verticalAlign=middle;spacingLeft=4;spacingRight=4;overflow=hidden;points=[[0,0.5],[1,0.5]];portConstraint=eastwest;rotatable=0;whiteSpace=wrap;html=1;" vertex="1" parent="KGWeYNtt0aZQLH6pzkXO-26">
          <mxGeometry y="60" width="140" height="30" as="geometry" />
        </mxCell>
        <mxCell id="KGWeYNtt0aZQLH6pzkXO-30" value="&lt;span class=&quot;HwtZe&quot; lang=&quot;en&quot;&gt;&lt;span class=&quot;jCAhz ChMk0b&quot;&gt;&lt;span class=&quot;ryNqvb&quot;&gt;tour operator&lt;/span&gt;&lt;/span&gt;&lt;/span&gt;" style="text;strokeColor=none;fillColor=none;align=left;verticalAlign=middle;spacingLeft=4;spacingRight=4;overflow=hidden;points=[[0,0.5],[1,0.5]];portConstraint=eastwest;rotatable=0;whiteSpace=wrap;html=1;" vertex="1" parent="KGWeYNtt0aZQLH6pzkXO-26">
          <mxGeometry y="90" width="140" height="30" as="geometry" />
        </mxCell>
        <mxCell id="KGWeYNtt0aZQLH6pzkXO-40" value="start time" style="text;strokeColor=none;fillColor=none;align=left;verticalAlign=middle;spacingLeft=4;spacingRight=4;overflow=hidden;points=[[0,0.5],[1,0.5]];portConstraint=eastwest;rotatable=0;whiteSpace=wrap;html=1;" vertex="1" parent="KGWeYNtt0aZQLH6pzkXO-26">
          <mxGeometry y="120" width="140" height="30" as="geometry" />
        </mxCell>
        <mxCell id="KGWeYNtt0aZQLH6pzkXO-41" value="end time" style="text;strokeColor=none;fillColor=none;align=left;verticalAlign=middle;spacingLeft=4;spacingRight=4;overflow=hidden;points=[[0,0.5],[1,0.5]];portConstraint=eastwest;rotatable=0;whiteSpace=wrap;html=1;" vertex="1" parent="KGWeYNtt0aZQLH6pzkXO-26">
          <mxGeometry y="150" width="140" height="30" as="geometry" />
        </mxCell>
        <mxCell id="KGWeYNtt0aZQLH6pzkXO-46" value="attractions" style="text;strokeColor=none;fillColor=none;align=left;verticalAlign=middle;spacingLeft=4;spacingRight=4;overflow=hidden;points=[[0,0.5],[1,0.5]];portConstraint=eastwest;rotatable=0;whiteSpace=wrap;html=1;" vertex="1" parent="KGWeYNtt0aZQLH6pzkXO-26">
          <mxGeometry y="180" width="140" height="30" as="geometry" />
        </mxCell>
        <mxCell id="KGWeYNtt0aZQLH6pzkXO-48" value="price" style="text;strokeColor=none;fillColor=none;align=left;verticalAlign=middle;spacingLeft=4;spacingRight=4;overflow=hidden;points=[[0,0.5],[1,0.5]];portConstraint=eastwest;rotatable=0;whiteSpace=wrap;html=1;" vertex="1" parent="KGWeYNtt0aZQLH6pzkXO-26">
          <mxGeometry y="210" width="140" height="30" as="geometry" />
        </mxCell>
        <mxCell id="KGWeYNtt0aZQLH6pzkXO-49" value="contact" style="text;strokeColor=none;fillColor=none;align=left;verticalAlign=middle;spacingLeft=4;spacingRight=4;overflow=hidden;points=[[0,0.5],[1,0.5]];portConstraint=eastwest;rotatable=0;whiteSpace=wrap;html=1;" vertex="1" parent="KGWeYNtt0aZQLH6pzkXO-26">
          <mxGeometry y="240" width="140" height="30" as="geometry" />
        </mxCell>
        <mxCell id="KGWeYNtt0aZQLH6pzkXO-64" value="img" style="text;strokeColor=none;fillColor=none;align=left;verticalAlign=middle;spacingLeft=4;spacingRight=4;overflow=hidden;points=[[0,0.5],[1,0.5]];portConstraint=eastwest;rotatable=0;whiteSpace=wrap;html=1;" vertex="1" parent="KGWeYNtt0aZQLH6pzkXO-26">
          <mxGeometry y="270" width="140" height="30" as="geometry" />
        </mxCell>
        <mxCell id="KGWeYNtt0aZQLH6pzkXO-31" value="&lt;span class=&quot;HwtZe&quot; lang=&quot;en&quot;&gt;&lt;span class=&quot;jCAhz ChMk0b&quot;&gt;&lt;span class=&quot;ryNqvb&quot;&gt;tour operator&lt;/span&gt;&lt;/span&gt;&lt;/span&gt;" style="swimlane;fontStyle=0;childLayout=stackLayout;horizontal=1;startSize=30;horizontalStack=0;resizeParent=1;resizeParentMax=0;resizeLast=0;collapsible=1;marginBottom=0;whiteSpace=wrap;html=1;" vertex="1" parent="1">
          <mxGeometry x="150" y="500" width="140" height="270" as="geometry" />
        </mxCell>
        <mxCell id="KGWeYNtt0aZQLH6pzkXO-32" value="name " style="text;strokeColor=none;fillColor=none;align=left;verticalAlign=middle;spacingLeft=4;spacingRight=4;overflow=hidden;points=[[0,0.5],[1,0.5]];portConstraint=eastwest;rotatable=0;whiteSpace=wrap;html=1;" vertex="1" parent="KGWeYNtt0aZQLH6pzkXO-31">
          <mxGeometry y="30" width="140" height="30" as="geometry" />
        </mxCell>
        <mxCell id="KGWeYNtt0aZQLH6pzkXO-33" value="slug" style="text;strokeColor=none;fillColor=none;align=left;verticalAlign=middle;spacingLeft=4;spacingRight=4;overflow=hidden;points=[[0,0.5],[1,0.5]];portConstraint=eastwest;rotatable=0;whiteSpace=wrap;html=1;" vertex="1" parent="KGWeYNtt0aZQLH6pzkXO-31">
          <mxGeometry y="60" width="140" height="30" as="geometry" />
        </mxCell>
        <mxCell id="KGWeYNtt0aZQLH6pzkXO-34" value="text" style="text;strokeColor=none;fillColor=none;align=left;verticalAlign=middle;spacingLeft=4;spacingRight=4;overflow=hidden;points=[[0,0.5],[1,0.5]];portConstraint=eastwest;rotatable=0;whiteSpace=wrap;html=1;" vertex="1" parent="KGWeYNtt0aZQLH6pzkXO-31">
          <mxGeometry y="90" width="140" height="30" as="geometry" />
        </mxCell>
        <mxCell id="KGWeYNtt0aZQLH6pzkXO-35" value="logo " style="text;strokeColor=none;fillColor=none;align=left;verticalAlign=middle;spacingLeft=4;spacingRight=4;overflow=hidden;points=[[0,0.5],[1,0.5]];portConstraint=eastwest;rotatable=0;whiteSpace=wrap;html=1;" vertex="1" parent="KGWeYNtt0aZQLH6pzkXO-31">
          <mxGeometry y="120" width="140" height="30" as="geometry" />
        </mxCell>
        <mxCell id="KGWeYNtt0aZQLH6pzkXO-36" value="email" style="text;strokeColor=none;fillColor=none;align=left;verticalAlign=middle;spacingLeft=4;spacingRight=4;overflow=hidden;points=[[0,0.5],[1,0.5]];portConstraint=eastwest;rotatable=0;whiteSpace=wrap;html=1;" vertex="1" parent="KGWeYNtt0aZQLH6pzkXO-31">
          <mxGeometry y="150" width="140" height="30" as="geometry" />
        </mxCell>
        <mxCell id="KGWeYNtt0aZQLH6pzkXO-37" value="phone" style="text;strokeColor=none;fillColor=none;align=left;verticalAlign=middle;spacingLeft=4;spacingRight=4;overflow=hidden;points=[[0,0.5],[1,0.5]];portConstraint=eastwest;rotatable=0;whiteSpace=wrap;html=1;" vertex="1" parent="KGWeYNtt0aZQLH6pzkXO-31">
          <mxGeometry y="180" width="140" height="30" as="geometry" />
        </mxCell>
        <mxCell id="KGWeYNtt0aZQLH6pzkXO-38" value="comments" style="text;strokeColor=none;fillColor=none;align=left;verticalAlign=middle;spacingLeft=4;spacingRight=4;overflow=hidden;points=[[0,0.5],[1,0.5]];portConstraint=eastwest;rotatable=0;whiteSpace=wrap;html=1;" vertex="1" parent="KGWeYNtt0aZQLH6pzkXO-31">
          <mxGeometry y="210" width="140" height="30" as="geometry" />
        </mxCell>
        <mxCell id="KGWeYNtt0aZQLH6pzkXO-39" value="rating" style="text;strokeColor=none;fillColor=none;align=left;verticalAlign=middle;spacingLeft=4;spacingRight=4;overflow=hidden;points=[[0,0.5],[1,0.5]];portConstraint=eastwest;rotatable=0;whiteSpace=wrap;html=1;" vertex="1" parent="KGWeYNtt0aZQLH6pzkXO-31">
          <mxGeometry y="240" width="140" height="30" as="geometry" />
        </mxCell>
        <mxCell id="KGWeYNtt0aZQLH6pzkXO-42" value="attractions" style="swimlane;fontStyle=0;childLayout=stackLayout;horizontal=1;startSize=30;horizontalStack=0;resizeParent=1;resizeParentMax=0;resizeLast=0;collapsible=1;marginBottom=0;whiteSpace=wrap;html=1;" vertex="1" parent="1">
          <mxGeometry x="640" y="510" width="140" height="150" as="geometry" />
        </mxCell>
        <mxCell id="KGWeYNtt0aZQLH6pzkXO-43" value="id" style="text;strokeColor=none;fillColor=none;align=left;verticalAlign=middle;spacingLeft=4;spacingRight=4;overflow=hidden;points=[[0,0.5],[1,0.5]];portConstraint=eastwest;rotatable=0;whiteSpace=wrap;html=1;" vertex="1" parent="KGWeYNtt0aZQLH6pzkXO-42">
          <mxGeometry y="30" width="140" height="30" as="geometry" />
        </mxCell>
        <mxCell id="KGWeYNtt0aZQLH6pzkXO-47" value="name " style="text;strokeColor=none;fillColor=none;align=left;verticalAlign=middle;spacingLeft=4;spacingRight=4;overflow=hidden;points=[[0,0.5],[1,0.5]];portConstraint=eastwest;rotatable=0;whiteSpace=wrap;html=1;" vertex="1" parent="KGWeYNtt0aZQLH6pzkXO-42">
          <mxGeometry y="60" width="140" height="30" as="geometry" />
        </mxCell>
        <mxCell id="KGWeYNtt0aZQLH6pzkXO-44" value="imgs " style="text;strokeColor=none;fillColor=none;align=left;verticalAlign=middle;spacingLeft=4;spacingRight=4;overflow=hidden;points=[[0,0.5],[1,0.5]];portConstraint=eastwest;rotatable=0;whiteSpace=wrap;html=1;" vertex="1" parent="KGWeYNtt0aZQLH6pzkXO-42">
          <mxGeometry y="90" width="140" height="30" as="geometry" />
        </mxCell>
        <mxCell id="KGWeYNtt0aZQLH6pzkXO-45" value="text" style="text;strokeColor=none;fillColor=none;align=left;verticalAlign=middle;spacingLeft=4;spacingRight=4;overflow=hidden;points=[[0,0.5],[1,0.5]];portConstraint=eastwest;rotatable=0;whiteSpace=wrap;html=1;" vertex="1" parent="KGWeYNtt0aZQLH6pzkXO-42">
          <mxGeometry y="120" width="140" height="30" as="geometry" />
        </mxCell>
        <mxCell id="KGWeYNtt0aZQLH6pzkXO-50" value="hotels" style="swimlane;fontStyle=0;childLayout=stackLayout;horizontal=1;startSize=30;horizontalStack=0;resizeParent=1;resizeParentMax=0;resizeLast=0;collapsible=1;marginBottom=0;whiteSpace=wrap;html=1;" vertex="1" parent="1">
          <mxGeometry x="1010" y="540" width="140" height="300" as="geometry" />
        </mxCell>
        <mxCell id="KGWeYNtt0aZQLH6pzkXO-51" value="id" style="text;strokeColor=none;fillColor=none;align=left;verticalAlign=middle;spacingLeft=4;spacingRight=4;overflow=hidden;points=[[0,0.5],[1,0.5]];portConstraint=eastwest;rotatable=0;whiteSpace=wrap;html=1;" vertex="1" parent="KGWeYNtt0aZQLH6pzkXO-50">
          <mxGeometry y="30" width="140" height="30" as="geometry" />
        </mxCell>
        <mxCell id="KGWeYNtt0aZQLH6pzkXO-52" value="name" style="text;strokeColor=none;fillColor=none;align=left;verticalAlign=middle;spacingLeft=4;spacingRight=4;overflow=hidden;points=[[0,0.5],[1,0.5]];portConstraint=eastwest;rotatable=0;whiteSpace=wrap;html=1;" vertex="1" parent="KGWeYNtt0aZQLH6pzkXO-50">
          <mxGeometry y="60" width="140" height="30" as="geometry" />
        </mxCell>
        <mxCell id="KGWeYNtt0aZQLH6pzkXO-53" value="comments " style="text;strokeColor=none;fillColor=none;align=left;verticalAlign=middle;spacingLeft=4;spacingRight=4;overflow=hidden;points=[[0,0.5],[1,0.5]];portConstraint=eastwest;rotatable=0;whiteSpace=wrap;html=1;" vertex="1" parent="KGWeYNtt0aZQLH6pzkXO-50">
          <mxGeometry y="90" width="140" height="30" as="geometry" />
        </mxCell>
        <mxCell id="KGWeYNtt0aZQLH6pzkXO-54" value="rating" style="text;strokeColor=none;fillColor=none;align=left;verticalAlign=middle;spacingLeft=4;spacingRight=4;overflow=hidden;points=[[0,0.5],[1,0.5]];portConstraint=eastwest;rotatable=0;whiteSpace=wrap;html=1;" vertex="1" parent="KGWeYNtt0aZQLH6pzkXO-50">
          <mxGeometry y="120" width="140" height="30" as="geometry" />
        </mxCell>
        <mxCell id="KGWeYNtt0aZQLH6pzkXO-55" value="slug" style="text;strokeColor=none;fillColor=none;align=left;verticalAlign=middle;spacingLeft=4;spacingRight=4;overflow=hidden;points=[[0,0.5],[1,0.5]];portConstraint=eastwest;rotatable=0;whiteSpace=wrap;html=1;" vertex="1" parent="KGWeYNtt0aZQLH6pzkXO-50">
          <mxGeometry y="150" width="140" height="30" as="geometry" />
        </mxCell>
        <mxCell id="KGWeYNtt0aZQLH6pzkXO-56" value="redirect url " style="text;strokeColor=none;fillColor=none;align=left;verticalAlign=middle;spacingLeft=4;spacingRight=4;overflow=hidden;points=[[0,0.5],[1,0.5]];portConstraint=eastwest;rotatable=0;whiteSpace=wrap;html=1;" vertex="1" parent="KGWeYNtt0aZQLH6pzkXO-50">
          <mxGeometry y="180" width="140" height="30" as="geometry" />
        </mxCell>
        <mxCell id="KGWeYNtt0aZQLH6pzkXO-57" value="phone" style="text;strokeColor=none;fillColor=none;align=left;verticalAlign=middle;spacingLeft=4;spacingRight=4;overflow=hidden;points=[[0,0.5],[1,0.5]];portConstraint=eastwest;rotatable=0;whiteSpace=wrap;html=1;" vertex="1" parent="KGWeYNtt0aZQLH6pzkXO-50">
          <mxGeometry y="210" width="140" height="30" as="geometry" />
        </mxCell>
        <mxCell id="KGWeYNtt0aZQLH6pzkXO-58" value="email" style="text;strokeColor=none;fillColor=none;align=left;verticalAlign=middle;spacingLeft=4;spacingRight=4;overflow=hidden;points=[[0,0.5],[1,0.5]];portConstraint=eastwest;rotatable=0;whiteSpace=wrap;html=1;" vertex="1" parent="KGWeYNtt0aZQLH6pzkXO-50">
          <mxGeometry y="240" width="140" height="30" as="geometry" />
        </mxCell>
        <mxCell id="KGWeYNtt0aZQLH6pzkXO-68" value="img" style="text;strokeColor=none;fillColor=none;align=left;verticalAlign=middle;spacingLeft=4;spacingRight=4;overflow=hidden;points=[[0,0.5],[1,0.5]];portConstraint=eastwest;rotatable=0;whiteSpace=wrap;html=1;" vertex="1" parent="KGWeYNtt0aZQLH6pzkXO-50">
          <mxGeometry y="270" width="140" height="30" as="geometry" />
        </mxCell>
        <mxCell id="KGWeYNtt0aZQLH6pzkXO-60" value="" style="endArrow=classic;html=1;rounded=0;exitX=1;exitY=0.5;exitDx=0;exitDy=0;entryX=0;entryY=0.5;entryDx=0;entryDy=0;" edge="1" parent="1" source="KGWeYNtt0aZQLH6pzkXO-2" target="KGWeYNtt0aZQLH6pzkXO-61">
          <mxGeometry width="50" height="50" relative="1" as="geometry">
            <mxPoint x="460" y="440" as="sourcePoint" />
            <mxPoint x="600" y="510" as="targetPoint" />
            <Array as="points">
              <mxPoint x="480" y="175" />
              <mxPoint x="480" y="375" />
            </Array>
          </mxGeometry>
        </mxCell>
        <mxCell id="KGWeYNtt0aZQLH6pzkXO-62" value="" style="endArrow=classic;html=1;rounded=0;exitX=0;exitY=0.5;exitDx=0;exitDy=0;entryX=1;entryY=0.5;entryDx=0;entryDy=0;" edge="1" parent="1" source="KGWeYNtt0aZQLH6pzkXO-43" target="KGWeYNtt0aZQLH6pzkXO-46">
          <mxGeometry width="50" height="50" relative="1" as="geometry">
            <mxPoint x="720" y="580" as="sourcePoint" />
            <mxPoint x="770" y="530" as="targetPoint" />
            <Array as="points">
              <mxPoint x="600" y="555" />
              <mxPoint x="600" y="675" />
            </Array>
          </mxGeometry>
        </mxCell>
        <mxCell id="KGWeYNtt0aZQLH6pzkXO-63" value="" style="endArrow=classic;html=1;rounded=0;exitX=1;exitY=0.5;exitDx=0;exitDy=0;entryX=0;entryY=0.5;entryDx=0;entryDy=0;" edge="1" parent="1" source="KGWeYNtt0aZQLH6pzkXO-32" target="KGWeYNtt0aZQLH6pzkXO-30">
          <mxGeometry width="50" height="50" relative="1" as="geometry">
            <mxPoint x="720" y="580" as="sourcePoint" />
            <mxPoint x="770" y="530" as="targetPoint" />
            <Array as="points">
              <mxPoint x="360" y="545" />
              <mxPoint x="360" y="585" />
            </Array>
          </mxGeometry>
        </mxCell>
        <mxCell id="KGWeYNtt0aZQLH6pzkXO-65" value="" style="endArrow=classic;html=1;rounded=0;exitX=1;exitY=0.5;exitDx=0;exitDy=0;entryX=1;entryY=0.5;entryDx=0;entryDy=0;" edge="1" parent="1" source="KGWeYNtt0aZQLH6pzkXO-17" target="KGWeYNtt0aZQLH6pzkXO-64">
          <mxGeometry width="50" height="50" relative="1" as="geometry">
            <mxPoint x="720" y="520" as="sourcePoint" />
            <mxPoint x="770" y="470" as="targetPoint" />
            <Array as="points">
              <mxPoint x="920" y="205" />
              <mxPoint x="920" y="765" />
            </Array>
          </mxGeometry>
        </mxCell>
        <mxCell id="KGWeYNtt0aZQLH6pzkXO-66" value="" style="endArrow=classic;html=1;rounded=0;exitX=0;exitY=0.5;exitDx=0;exitDy=0;entryX=0;entryY=0.5;entryDx=0;entryDy=0;" edge="1" parent="1" source="KGWeYNtt0aZQLH6pzkXO-21" target="KGWeYNtt0aZQLH6pzkXO-38">
          <mxGeometry width="50" height="50" relative="1" as="geometry">
            <mxPoint x="720" y="550" as="sourcePoint" />
            <mxPoint x="770" y="500" as="targetPoint" />
            <Array as="points">
              <mxPoint x="440" y="225" />
              <mxPoint x="440" y="440" />
              <mxPoint x="40" y="440" />
              <mxPoint x="40" y="725" />
            </Array>
          </mxGeometry>
        </mxCell>
        <mxCell id="KGWeYNtt0aZQLH6pzkXO-67" value="" style="endArrow=classic;html=1;rounded=0;exitX=1;exitY=0.5;exitDx=0;exitDy=0;entryX=0;entryY=0.5;entryDx=0;entryDy=0;" edge="1" parent="1" source="KGWeYNtt0aZQLH6pzkXO-21" target="KGWeYNtt0aZQLH6pzkXO-53">
          <mxGeometry width="50" height="50" relative="1" as="geometry">
            <mxPoint x="670" y="460" as="sourcePoint" />
            <mxPoint x="720" y="470" as="targetPoint" />
            <Array as="points">
              <mxPoint x="720" y="225" />
              <mxPoint x="720" y="460" />
              <mxPoint x="960" y="460" />
              <mxPoint x="960" y="645" />
            </Array>
          </mxGeometry>
        </mxCell>
        <mxCell id="KGWeYNtt0aZQLH6pzkXO-69" value="" style="endArrow=classic;html=1;rounded=0;exitX=1;exitY=0.5;exitDx=0;exitDy=0;entryX=0;entryY=0.5;entryDx=0;entryDy=0;" edge="1" parent="1" source="KGWeYNtt0aZQLH6pzkXO-17" target="KGWeYNtt0aZQLH6pzkXO-68">
          <mxGeometry width="50" height="50" relative="1" as="geometry">
            <mxPoint x="670" y="490" as="sourcePoint" />
            <mxPoint x="720" y="440" as="targetPoint" />
            <Array as="points">
              <mxPoint x="960" y="205" />
              <mxPoint x="960" y="825" />
            </Array>
          </mxGeometry>
        </mxCell>
        <mxCell id="KGWeYNtt0aZQLH6pzkXO-70" value="" style="endArrow=classic;html=1;rounded=0;exitX=1;exitY=0.5;exitDx=0;exitDy=0;entryX=0;entryY=0.5;entryDx=0;entryDy=0;" edge="1" parent="1" source="KGWeYNtt0aZQLH6pzkXO-17" target="KGWeYNtt0aZQLH6pzkXO-15">
          <mxGeometry width="50" height="50" relative="1" as="geometry">
            <mxPoint x="670" y="520" as="sourcePoint" />
            <mxPoint x="720" y="470" as="targetPoint" />
            <Array as="points">
              <mxPoint x="960" y="205" />
              <mxPoint x="960" y="435" />
            </Array>
          </mxGeometry>
        </mxCell>
        <mxCell id="KGWeYNtt0aZQLH6pzkXO-71" value="" style="endArrow=classic;html=1;rounded=0;exitX=0;exitY=0.5;exitDx=0;exitDy=0;entryX=1;entryY=0.5;entryDx=0;entryDy=0;" edge="1" parent="1" source="KGWeYNtt0aZQLH6pzkXO-17" target="KGWeYNtt0aZQLH6pzkXO-44">
          <mxGeometry width="50" height="50" relative="1" as="geometry">
            <mxPoint x="670" y="520" as="sourcePoint" />
            <mxPoint x="720" y="470" as="targetPoint" />
            <Array as="points">
              <mxPoint x="720" y="205" />
              <mxPoint x="720" y="460" />
              <mxPoint x="880" y="460" />
              <mxPoint x="880" y="615" />
            </Array>
          </mxGeometry>
        </mxCell>
      </root>
    </mxGraphModel>
  </diagram>
</mxfile>
